<svg width="99" height="211" viewBox="0 0 99 211" fill="none" xmlns="http://www.w3.org/2000/svg">
<path opacity="0.607474" d="M15.7042 1.15282C-25.3783 86.7966 31.4684 144.685 41.6595 154.043C42.4556 154.677 43.7295 154.519 44.2072 153.567C50.7358 141.355 85.2897 68.0818 18.4112 0.67702C17.4558 -0.115978 16.1819 0.0426219 15.7042 1.15282Z" fill="#9155FD"/>
<path opacity="0.607474" d="M42.7735 152.774C38.1557 148.492 23.9838 134.218 13.7928 112.014C2.80562 87.9069 -5.47458 49.2086 17.1367 1.78729C54.3976 39.2168 59.1747 78.3909 56.6269 104.877C54.3976 129.143 45.6397 147.382 42.7735 152.774Z" fill="url(#paint0_linear_7706_92401)"/>
<path d="M37.8374 113.917L46.5953 101.705C47.073 100.912 46.9138 99.9603 46.2769 99.4845C45.4807 99.0087 44.5253 99.1673 44.0476 99.8017L37.2005 109.476L33.0604 84.8933L27.9649 54.918L32.7419 48.2568C33.2196 47.6224 33.0604 46.5122 32.4235 46.0364C31.6273 45.5606 30.6719 45.7192 30.1942 46.3536L27.3279 50.3186L22.5509 22.2464C22.3917 21.4535 21.5955 20.8191 20.6401 20.9777C19.8439 21.1363 19.207 21.9292 19.3662 22.8808L24.7802 54.7594L29.398 81.5627L18.0923 73.4741C17.2962 72.9983 16.3408 73.1569 15.8631 73.7913C15.3854 74.5843 15.5446 75.5359 16.1815 76.0117L30.1942 85.8449L34.812 113.6L46.7546 183.701C46.9138 184.494 47.5507 184.97 48.3469 184.97C48.5062 184.97 48.5062 184.97 48.6654 184.97C49.4616 184.811 50.0985 184.018 49.9393 183.066L37.8374 113.917Z" fill="#9155FD"/>
<path d="M93.3831 73.0018C44.3375 106.631 57.0829 155.708 59.6642 163.914C59.8256 164.558 60.6322 164.88 61.1163 164.397C68.3763 159.731 110.162 130.767 94.9964 73.4845C94.8351 73.0018 94.0284 72.68 93.3831 73.0018Z" fill="#9155FD"/>
<path d="M60.6327 163.753C59.5033 160.053 56.2766 147.824 57.7286 132.537C59.342 115.964 66.9247 92.4715 94.0288 73.8063C102.418 105.666 92.8995 128.515 83.2194 142.031C74.346 154.421 63.8593 161.662 60.6327 163.753Z" fill="url(#paint1_linear_7706_92401)"/>
<path d="M89.6712 85.3915C89.1872 85.2306 88.5419 85.3915 88.3805 86.0352L81.2818 105.022L75.3125 120.952L71.7631 113.068C71.6018 112.585 70.9564 112.424 70.4724 112.585C69.9884 112.746 69.8271 113.389 69.9884 113.872L74.5058 123.527L68.3751 139.939L52.887 181.614C52.7257 182.097 52.887 182.74 53.5324 182.901C53.6937 182.901 53.6937 182.901 53.855 182.901C54.339 182.901 54.6617 182.58 54.823 182.258L70.1498 140.905L78.7005 137.043C79.1845 136.882 79.3458 136.238 79.1845 135.756C79.0231 135.273 78.3778 135.112 77.8938 135.273L71.1178 138.33L76.6031 123.687L83.2178 105.827L87.8965 103.735C88.3805 103.574 88.5419 102.93 88.3805 102.448C88.2192 101.965 87.5738 101.804 87.0898 101.965L84.3472 103.252L90.4779 86.5179C90.4779 86.1961 90.1552 85.7133 89.6712 85.3915Z" fill="#9155FD"/>
<rect x="34.9139" y="177.257" width="29.4584" height="32.9241" fill="#C6C2D6"/>
<defs>
<linearGradient id="paint0_linear_7706_92401" x1="57.1972" y1="77.2807" x2="2.79868" y2="77.2807" gradientUnits="userSpaceOnUse">
<stop stop-color="#9155FD"/>
<stop offset="1" stop-color="#C6A7FE"/>
</linearGradient>
<linearGradient id="paint1_linear_7706_92401" x1="97.257" y1="118.78" x2="57.3598" y2="118.78" gradientUnits="userSpaceOnUse">
<stop stop-color="#9155FD"/>
<stop offset="1" stop-color="#C6A7FE"/>
</linearGradient>
</defs>
</svg>
